<svg width="189" height="97" viewBox="0 0 189 97" fill="none" xmlns="http://www.w3.org/2000/svg">
<g id="Group 2 Copy 3">
<g id="Fill 1">
<path fill-rule="evenodd" clip-rule="evenodd" d="M112.752 16.3224L112.742 59.6776C112.742 65.6006 108.673 69.1287 103.994 69.1287C99.225 69.1287 95.452 65.6006 95.452 59.6776L95.4665 44.2784H87.9444L87.9314 59.6776C87.9314 69.8507 95.1432 76 103.994 76C112.709 76 120.356 69.8507 120.356 59.6776V31.7316H120.352L120.367 16.3224C120.367 10.3994 124.436 6.87197 129.114 6.87197C133.884 6.87197 137.656 10.3994 137.656 16.3224L137.633 31.8888H145.155L145.177 16.3224C145.177 6.14928 137.965 0 129.114 0C120.399 0 112.752 6.14928 112.752 16.3224V16.3224ZM97.865 0L97.8852 15.5663C97.8852 21.4894 94.9492 25.0168 90.2722 25.0168C85.5006 25.0168 82.9341 21.4894 82.9341 15.5663L82.9132 0H75.3918L75.4113 15.5663C75.4113 25.7402 81.4196 31.8888 90.2722 31.8888C98.987 31.8888 105.499 25.7402 105.499 15.5663L105.48 0H97.865ZM172.534 0.0405273L155.769 0.0874739V31.9058L172.534 31.9044C182.258 31.9044 189 24.3218 189 15.3679C189 6.53622 182.85 0.0405273 172.639 0.0405273H172.534V0.0405273ZM163.292 6.91536L172.534 6.91394C177.856 6.91394 181.386 9.85308 181.386 15.3679C181.386 20.5234 177.764 25.0317 172.534 25.0317L163.292 25.0332V6.91536ZM9.95595 0.0419922C4.57758 0.0419922 0.202148 4.35538 0.202148 9.65749C0.202148 14.9589 4.57758 19.273 9.95595 19.273L20.1564 19.3135C21.8643 19.3135 23.2547 20.6842 23.2547 22.3686C23.2547 24.0537 21.8643 25.4237 20.1564 25.4237H1.31116V31.9848H20.1564C25.5355 31.9848 29.9102 27.6707 29.9102 22.3686C29.9102 17.0665 25.5355 12.7531 20.1564 12.7531H17.7342V12.7126H9.95595C8.24662 12.7126 6.85693 11.3426 6.85693 9.65749C6.85693 7.9724 8.24662 6.60241 9.95595 6.60241H28.8005V0.0419922H9.95595ZM36.0894 16.0685C36.0894 24.8397 43.2456 31.9848 52.1884 31.9848C61.041 31.9848 68.2874 24.8397 68.2874 16.0685C68.2874 7.34215 61.041 0.152222 52.1884 0.152222C43.2456 0.152222 36.0894 7.34215 36.0894 16.0685V16.0685ZM42.9692 16.0685C42.9692 11.0957 47.0979 7.07043 52.1884 7.07043C57.1879 7.07043 61.3152 11.0957 61.3152 16.0685C61.3152 21.0875 57.1879 25.1128 52.1884 25.1128C47.0979 25.1128 42.9692 21.0875 42.9692 16.0685V16.0685ZM34.5215 44.1361V57.1908H22.5504H16.2722V44.1361H8.75014V57.1908H0V64.0877H8.75014V76H16.2722V64.0877H22.5504V64.0635H34.5215V76H42.089V44.1361H34.5215ZM48.9248 60.0837C48.9248 68.8556 56.0803 76 65.0239 76C73.875 76 81.1229 68.8556 81.1229 60.0837C81.1229 51.3566 73.875 44.1681 65.0239 44.1681C56.0803 44.1681 48.9248 51.3566 48.9248 60.0837V60.0837ZM55.804 60.0837C55.804 55.1109 59.9319 51.0863 65.0238 51.0863C70.0227 51.0863 74.1513 55.1109 74.1513 60.0837C74.1513 65.1041 70.0227 69.1287 65.0238 69.1287C59.9319 69.1287 55.804 65.1041 55.804 60.0837V60.0837ZM136.909 44.3367C131.531 44.3367 127.155 48.6131 127.155 53.8682C127.155 59.1241 131.531 63.3998 136.909 63.3998L145.977 63.4396C147.685 63.4396 149.076 64.7975 149.076 66.4684C149.076 68.1386 147.685 69.4964 145.977 69.4964H128.264V76H145.977C151.354 76 155.73 71.7236 155.73 66.4684C155.73 61.2132 151.354 56.9368 145.977 56.9368H143.554V56.8963H136.909C135.2 56.8963 133.811 55.5384 133.811 53.8682C133.811 52.1981 135.2 50.8402 136.909 50.8402H154.621V44.3367H136.909ZM163.901 44.4149V76H187.866V68.9395H171.422V63.5065H185.091V56.9098H171.422V51.4761H187.866V44.4149H163.901Z" fill="url(#paint0_linear)"/>
<path fill-rule="evenodd" clip-rule="evenodd" d="M112.752 16.3224L112.742 59.6776C112.742 65.6006 108.673 69.1287 103.994 69.1287C99.225 69.1287 95.452 65.6006 95.452 59.6776L95.4665 44.2784H87.9444L87.9314 59.6776C87.9314 69.8507 95.1432 76 103.994 76C112.709 76 120.356 69.8507 120.356 59.6776V31.7316H120.352L120.367 16.3224C120.367 10.3994 124.436 6.87197 129.114 6.87197C133.884 6.87197 137.656 10.3994 137.656 16.3224L137.633 31.8888H145.155L145.177 16.3224C145.177 6.14928 137.965 0 129.114 0C120.399 0 112.752 6.14928 112.752 16.3224V16.3224ZM97.865 0L97.8852 15.5663C97.8852 21.4894 94.9492 25.0168 90.2722 25.0168C85.5006 25.0168 82.9341 21.4894 82.9341 15.5663L82.9132 0H75.3918L75.4113 15.5663C75.4113 25.7402 81.4196 31.8888 90.2722 31.8888C98.987 31.8888 105.499 25.7402 105.499 15.5663L105.48 0H97.865ZM172.534 0.0405273L155.769 0.0874739V31.9058L172.534 31.9044C182.258 31.9044 189 24.3218 189 15.3679C189 6.53622 182.85 0.0405273 172.639 0.0405273H172.534V0.0405273ZM163.292 6.91536L172.534 6.91394C177.856 6.91394 181.386 9.85308 181.386 15.3679C181.386 20.5234 177.764 25.0317 172.534 25.0317L163.292 25.0332V6.91536ZM9.95595 0.0419922C4.57758 0.0419922 0.202148 4.35538 0.202148 9.65749C0.202148 14.9589 4.57758 19.273 9.95595 19.273L20.1564 19.3135C21.8643 19.3135 23.2547 20.6842 23.2547 22.3686C23.2547 24.0537 21.8643 25.4237 20.1564 25.4237H1.31116V31.9848H20.1564C25.5355 31.9848 29.9102 27.6707 29.9102 22.3686C29.9102 17.0665 25.5355 12.7531 20.1564 12.7531H17.7342V12.7126H9.95595C8.24662 12.7126 6.85693 11.3426 6.85693 9.65749C6.85693 7.9724 8.24662 6.60241 9.95595 6.60241H28.8005V0.0419922H9.95595ZM36.0894 16.0685C36.0894 24.8397 43.2456 31.9848 52.1884 31.9848C61.041 31.9848 68.2874 24.8397 68.2874 16.0685C68.2874 7.34215 61.041 0.152222 52.1884 0.152222C43.2456 0.152222 36.0894 7.34215 36.0894 16.0685V16.0685ZM42.9692 16.0685C42.9692 11.0957 47.0979 7.07043 52.1884 7.07043C57.1879 7.07043 61.3152 11.0957 61.3152 16.0685C61.3152 21.0875 57.1879 25.1128 52.1884 25.1128C47.0979 25.1128 42.9692 21.0875 42.9692 16.0685V16.0685ZM34.5215 44.1361V57.1908H22.5504H16.2722V44.1361H8.75014V57.1908H0V64.0877H8.75014V76H16.2722V64.0877H22.5504V64.0635H34.5215V76H42.089V44.1361H34.5215ZM48.9248 60.0837C48.9248 68.8556 56.0803 76 65.0239 76C73.875 76 81.1229 68.8556 81.1229 60.0837C81.1229 51.3566 73.875 44.1681 65.0239 44.1681C56.0803 44.1681 48.9248 51.3566 48.9248 60.0837V60.0837ZM55.804 60.0837C55.804 55.1109 59.9319 51.0863 65.0238 51.0863C70.0227 51.0863 74.1513 55.1109 74.1513 60.0837C74.1513 65.1041 70.0227 69.1287 65.0238 69.1287C59.9319 69.1287 55.804 65.1041 55.804 60.0837V60.0837ZM136.909 44.3367C131.531 44.3367 127.155 48.6131 127.155 53.8682C127.155 59.1241 131.531 63.3998 136.909 63.3998L145.977 63.4396C147.685 63.4396 149.076 64.7975 149.076 66.4684C149.076 68.1386 147.685 69.4964 145.977 69.4964H128.264V76H145.977C151.354 76 155.73 71.7236 155.73 66.4684C155.73 61.2132 151.354 56.9368 145.977 56.9368H143.554V56.8963H136.909C135.2 56.8963 133.811 55.5384 133.811 53.8682C133.811 52.1981 135.2 50.8402 136.909 50.8402H154.621V44.3367H136.909ZM163.901 44.4149V76H187.866V68.9395H171.422V63.5065H185.091V56.9098H171.422V51.4761H187.866V44.4149H163.901Z" fill="white"/>
</g>
<path id="Fill 1_2" fill-rule="evenodd" clip-rule="evenodd" d="M189 91.009V90.0998C188.492 90.0761 187.648 90.0524 187.161 90.0524C185.926 90.0524 184.781 90.117 184.781 91.6711V95.328C184.781 96.8822 185.926 96.9468 187.161 96.9468C187.648 96.9468 188.492 96.9224 189 96.8987V95.9902H187.13C186.159 95.9902 185.995 95.7977 185.995 94.9266V93.9053H188.864V92.9724H185.995V92.0719C185.995 91.2007 186.159 91.009 187.13 91.009H189ZM179.881 90.1874C179.432 90.079 178.823 90 178.132 90C175.841 90 175.273 91.0622 175.273 93.4996C175.273 95.9335 175.838 97 178.132 97C178.823 97 179.432 96.9196 179.881 96.8111L179.774 95.9012C179.34 95.9687 178.876 96.014 178.404 96.014C176.532 96.014 176.517 94.9532 176.517 93.4996C176.517 92.0511 176.532 90.986 178.404 90.986C178.876 90.986 179.34 91.0299 179.774 91.0974L179.881 90.1874ZM166.535 90.7649C166.233 90.2025 165.893 90 165.462 90C164.999 90 164.714 90.2585 164.714 90.8683V96.9289H165.8V91.5419L168.315 96.228C168.619 96.7968 168.936 96.9993 169.391 96.9993C169.864 96.9993 170.138 96.7379 170.138 96.1281V90.0704H169.053V95.4394L166.535 90.7649ZM159.56 91.009V90.0998C159.052 90.0761 158.209 90.0524 157.722 90.0524C156.487 90.0524 155.341 90.117 155.341 91.6711V95.328C155.341 96.8822 156.487 96.9468 157.722 96.9468C158.209 96.9468 159.052 96.9224 159.56 96.8987V95.9902H157.692C156.72 95.9902 156.555 95.7977 156.555 94.9266V93.9053H159.426V92.9724H156.555V92.0719C156.555 91.2007 156.72 91.009 157.692 91.009H159.56ZM148.82 96.9282H150.04V90.0697H148.82V96.9282ZM139.917 93.2906C140.252 93.3316 140.586 93.3344 140.928 93.3344C141.911 93.3344 142.494 93.0903 142.494 92.11C142.494 91.251 142.091 90.9149 140.964 90.9149C140.635 90.9149 140.255 90.9386 139.917 90.9831V93.2906ZM139.917 96.9289H138.704V90.1795C139.28 90.0761 140.12 90 140.928 90C142.44 90 143.699 90.2944 143.699 92.1136C143.699 93.3639 143.131 93.9205 142.249 94.141L143.879 96.9289H142.464L140.985 94.2652C140.632 94.2652 140.225 94.2473 139.917 94.2293V96.9289ZM133.549 91.009V90.0998C133.04 90.0761 132.198 90.0524 131.71 90.0524C130.475 90.0524 129.33 90.117 129.33 91.6711V95.328C129.33 96.8822 130.475 96.9468 131.71 96.9468C132.198 96.9468 133.04 96.9224 133.549 96.8987V95.9902H131.681C130.709 95.9902 130.544 95.7977 130.544 94.9266V93.9053H133.415V92.9724H130.544V92.0719C130.544 91.2007 130.709 91.009 131.681 91.009H133.549ZM120.653 93.3495C120.988 93.3905 121.323 93.3933 121.663 93.3933C122.669 93.3933 123.231 93.1405 123.231 92.1394C123.231 91.2654 122.847 90.9214 121.701 90.9214C121.372 90.9214 120.991 90.9444 120.653 90.9889V93.3495ZM120.653 96.9289H119.439V90.1795C120.016 90.0761 120.857 90 121.664 90C123.198 90 124.436 90.3002 124.436 92.1394C124.436 93.9291 123.324 94.3176 121.745 94.3176C121.388 94.3176 120.971 94.3004 120.653 94.2824V96.9289ZM112.304 93.3999L114.46 90.0704H113.154L111.656 92.4519L110.169 90.0704H108.785L110.961 93.4379L108.702 96.9282H110.039L111.595 94.406L113.193 96.9282H114.592L112.304 93.3999ZM103.904 91.009V90.0998C103.395 90.0761 102.552 90.0524 102.064 90.0524C100.83 90.0524 99.6838 90.117 99.6838 91.6711V95.328C99.6838 96.8822 100.83 96.9468 102.064 96.9468C102.552 96.9468 103.395 96.9224 103.904 96.8987V95.9902H102.034C101.063 95.9902 100.898 95.7977 100.898 94.9266V93.9053H103.768V92.9724H100.898V92.0719C100.898 91.2007 101.063 91.009 102.034 91.009H103.904ZM85.4168 96.0276C86.8999 96.0276 86.9422 94.9978 86.9422 93.4997C86.9422 92.0016 86.8999 90.9674 85.4168 90.9674C83.9344 90.9674 83.895 92.0016 83.895 93.4997C83.895 94.9978 83.9344 96.0276 85.4168 96.0276V96.0276ZM85.4167 97C83.2698 97 82.6577 95.9838 82.6577 93.4996C82.6577 91.0155 83.2698 90 85.4167 90C87.5637 90 88.1736 91.0155 88.1736 93.4996C88.1736 95.9838 87.5637 97 85.4167 97V97ZM76.2847 96.9282H77.5044V90.0697H76.2847V96.9282ZM67.0688 95.978C67.287 96.0074 67.562 96.0369 67.8801 96.0369C69.9001 96.0369 69.9154 94.9395 69.9154 93.4996C69.9154 92.0604 69.9001 90.963 67.8801 90.963C67.562 90.963 67.287 90.9925 67.0688 91.0219V95.978ZM65.8518 90.1795C66.4289 90.0761 67.2693 90 68.0761 90C70.6746 90 71.1357 91.1692 71.1357 93.4996C71.1357 95.8308 70.6746 96.9993 68.0761 96.9993C67.2693 96.9993 66.4289 96.9224 65.8518 96.8197V90.1795ZM56.576 90.0704H55.376V94.6502C55.376 96.511 56.3958 96.9993 57.9599 96.9993C59.524 96.9993 60.5431 96.511 60.5431 94.6502V90.0704H59.3438V94.727C59.3438 95.6362 58.9769 96.0104 57.9599 96.0104C56.943 96.0104 56.576 95.6362 56.576 94.727V90.0704ZM48.6273 94.2027L47.625 91.1002L46.6379 94.2027H48.6273ZM44.5217 96.9282L46.6329 90.818C46.8277 90.2557 47.1954 90 47.6791 90C48.1576 90 48.5282 90.2557 48.7194 90.818L50.7985 96.9282H49.5058L48.9178 95.1062H46.3521L45.7714 96.9282H44.5217ZM31.2146 90.0697H29.9978V95.3274C29.9978 96.8815 31.1431 96.9469 32.3775 96.9469C32.8298 96.9469 33.5856 96.9254 34.0999 96.9052V95.9903H32.3505C31.3788 95.9903 31.2146 95.7985 31.2146 94.9267V90.0697ZM23.0995 94.2027L22.0971 91.1002L21.1101 94.2027H23.0995ZM18.9937 96.9282L21.1049 90.818C21.2989 90.2557 21.6666 90 22.1517 90C22.6296 90 23.0002 90.2557 23.1913 90.818L25.2697 96.9282H23.9784L23.389 95.1062H20.824L20.2433 96.9282H18.9937ZM14.2373 91.009V90.0998C13.7289 90.0761 12.8863 90.0524 12.3982 90.0524C11.1639 90.0524 10.0178 90.117 10.0178 91.6711V95.328C10.0178 96.8822 11.1639 96.9468 12.3982 96.9468C12.8863 96.9468 13.7289 96.9224 14.2373 96.8987V95.9902H12.3683C11.3973 95.9902 11.2325 95.7977 11.2325 94.9266V93.9053H14.1031V92.9724H11.2325V92.0719C11.2325 91.2007 11.3973 91.009 12.3683 91.009H14.2373ZM1.2146 93.2906C1.54945 93.3316 1.88357 93.3344 2.22498 93.3344C3.20837 93.3344 3.79198 93.0903 3.79198 92.11C3.79198 91.251 3.38783 90.9149 2.26073 90.9149C1.93171 90.9149 1.55237 90.9386 1.2146 90.9831V93.2906ZM1.21464 96.9289H0V90.1795C0.577047 90.0761 1.41818 90 2.22502 90C3.73804 90 4.99645 90.2944 4.99645 92.1136C4.99645 93.3639 4.42816 93.9205 3.54618 94.141L5.17664 96.9289H3.76211L2.28192 94.2652C1.92884 94.2652 1.5225 94.2473 1.21464 94.2293V96.9289Z" fill="#EDEDED"/>
</g>
<defs>
<linearGradient id="paint0_linear" x1="-95.445" y1="38.76" x2="-41.3943" y2="171.858" gradientUnits="userSpaceOnUse">
<stop stop-color="#DD166B"/>
<stop offset="1" stop-color="#722FD9"/>
</linearGradient>
</defs>
</svg>
